<svg xmlns="http://www.w3.org/2000/svg" width="13.082" height="10.631" viewBox="0 0 13.082 10.631">
  <path id="icons8-twitter" d="M13.023,6.875a5.369,5.369,0,0,1-1.543.423,2.691,2.691,0,0,0,1.181-1.484,5.389,5.389,0,0,1-1.7.65A2.685,2.685,0,0,0,6.384,8.912a7.621,7.621,0,0,1-5.532-2.8,2.69,2.69,0,0,0,.831,3.585A2.682,2.682,0,0,1,.466,9.356V9.39a2.688,2.688,0,0,0,2.152,2.633,2.686,2.686,0,0,1-.707.094,2.585,2.585,0,0,1-.506-.049,2.69,2.69,0,0,0,2.507,1.865A5.38,5.38,0,0,1,.581,15.08a5.28,5.28,0,0,1-.639-.038,7.583,7.583,0,0,0,4.114,1.206,7.584,7.584,0,0,0,7.637-7.636c0-.116,0-.233-.007-.348A5.456,5.456,0,0,0,13.023,6.875Z" transform="translate(0.059 -5.617)" fill="#fff"/>
</svg>
